<svg width="444" height="350" viewBox="0 0 444 350" fill="none" xmlns="http://www.w3.org/2000/svg">
<g filter="url(#filter0_d_369_336)">
<path d="M40 36H354C381.614 36 404 58.3858 404 86V256C404 283.614 381.614 306 354 306H40V36Z" fill="white"/>
</g>
<path d="M66.3539 166.6L68.9939 161.16L68.9739 162.78L63.2539 151.42H66.5339L69.3139 157.38C69.5139 157.78 69.6939 158.18 69.8539 158.58C70.0272 158.98 70.1606 159.367 70.2539 159.74L69.7139 159.88C69.8339 159.56 69.9806 159.193 70.1539 158.78C70.3272 158.353 70.5072 157.92 70.6939 157.48L73.2339 151.42H76.4939L71.3739 162.04L69.2539 166.6H66.3539ZM82.5177 162.2C81.251 162.2 80.1377 161.967 79.1777 161.5C78.231 161.033 77.491 160.393 76.9577 159.58C76.4243 158.767 76.1577 157.833 76.1577 156.78C76.1577 155.94 76.311 155.18 76.6177 154.5C76.9243 153.82 77.351 153.233 77.8977 152.74C78.4443 152.247 79.0843 151.867 79.8177 151.6C80.551 151.333 81.3377 151.2 82.1777 151.2C82.9777 151.2 83.7177 151.327 84.3977 151.58C85.091 151.833 85.691 152.2 86.1977 152.68C86.7043 153.147 87.0977 153.7 87.3777 154.34C87.6577 154.98 87.7843 155.687 87.7577 156.46L87.7377 157.38H78.1177L77.6577 155.6H85.3977L85.0777 155.96V155.52C85.0377 155.16 84.8777 154.833 84.5977 154.54C84.331 154.247 83.991 154.013 83.5777 153.84C83.1643 153.667 82.711 153.58 82.2177 153.58C81.551 153.58 80.9643 153.693 80.4577 153.92C79.951 154.133 79.551 154.46 79.2577 154.9C78.9777 155.34 78.8377 155.893 78.8377 156.56C78.8377 157.2 79.0043 157.76 79.3377 158.24C79.6843 158.707 80.1577 159.073 80.7577 159.34C81.371 159.593 82.0843 159.72 82.8977 159.72C83.591 159.72 84.1777 159.633 84.6577 159.46C85.151 159.273 85.6043 159.033 86.0177 158.74L87.3177 160.64C86.9043 160.96 86.431 161.24 85.8977 161.48C85.3777 161.72 84.831 161.9 84.2577 162.02C83.6843 162.14 83.1043 162.2 82.5177 162.2ZM93.3503 162.2C92.217 162.2 91.2036 162.04 90.3103 161.72C89.417 161.387 88.6903 160.907 88.1303 160.28L89.9103 158.72C90.3503 159.173 90.877 159.513 91.4903 159.74C92.1036 159.967 92.757 160.08 93.4503 160.08C93.6903 160.08 93.9236 160.06 94.1503 160.02C94.3903 159.98 94.597 159.92 94.7703 159.84C94.9436 159.747 95.0836 159.633 95.1903 159.5C95.297 159.367 95.3503 159.213 95.3503 159.04C95.3503 158.747 95.1703 158.513 94.8103 158.34C94.5836 158.26 94.2903 158.173 93.9303 158.08C93.5836 157.987 93.1903 157.9 92.7503 157.82C92.0036 157.66 91.3503 157.48 90.7903 157.28C90.2303 157.08 89.7636 156.833 89.3903 156.54C89.097 156.26 88.8703 155.947 88.7103 155.6C88.5503 155.253 88.4703 154.853 88.4703 154.4C88.4703 153.92 88.5903 153.48 88.8303 153.08C89.0703 152.68 89.4103 152.347 89.8503 152.08C90.2903 151.8 90.7903 151.587 91.3503 151.44C91.9236 151.28 92.5303 151.2 93.1703 151.2C93.7836 151.2 94.3836 151.267 94.9703 151.4C95.5703 151.52 96.137 151.7 96.6703 151.94C97.2036 152.18 97.6636 152.48 98.0503 152.84L96.5703 154.56C96.277 154.333 95.937 154.127 95.5503 153.94C95.1636 153.74 94.757 153.587 94.3303 153.48C93.917 153.36 93.5103 153.3 93.1103 153.3C92.8703 153.3 92.6303 153.32 92.3903 153.36C92.1636 153.387 91.9636 153.44 91.7903 153.52C91.617 153.6 91.477 153.7 91.3703 153.82C91.277 153.94 91.2303 154.087 91.2303 154.26C91.2303 154.407 91.2636 154.54 91.3303 154.66C91.4103 154.767 91.517 154.86 91.6503 154.94C91.8503 155.073 92.137 155.193 92.5103 155.3C92.8836 155.393 93.3436 155.5 93.8903 155.62C94.6636 155.78 95.3303 155.967 95.8903 156.18C96.4636 156.38 96.9236 156.633 97.2703 156.94C97.5503 157.153 97.7636 157.42 97.9103 157.74C98.057 158.047 98.1303 158.393 98.1303 158.78C98.1303 159.46 97.917 160.06 97.4903 160.58C97.077 161.087 96.5103 161.487 95.7903 161.78C95.0836 162.06 94.2703 162.2 93.3503 162.2ZM100.67 162V148.5H103.51V162H100.67ZM98.2103 153.96V151.42H106.31V153.96H98.2103ZM112.993 162.2C111.727 162.2 110.613 161.967 109.653 161.5C108.707 161.033 107.967 160.393 107.433 159.58C106.9 158.767 106.633 157.833 106.633 156.78C106.633 155.94 106.787 155.18 107.093 154.5C107.4 153.82 107.827 153.233 108.373 152.74C108.92 152.247 109.56 151.867 110.293 151.6C111.027 151.333 111.813 151.2 112.653 151.2C113.453 151.2 114.193 151.327 114.873 151.58C115.567 151.833 116.167 152.2 116.673 152.68C117.18 153.147 117.573 153.7 117.853 154.34C118.133 154.98 118.26 155.687 118.233 156.46L118.213 157.38H108.593L108.133 155.6H115.873L115.553 155.96V155.52C115.513 155.16 115.353 154.833 115.073 154.54C114.807 154.247 114.467 154.013 114.053 153.84C113.64 153.667 113.187 153.58 112.693 153.58C112.027 153.58 111.44 153.693 110.933 153.92C110.427 154.133 110.027 154.46 109.733 154.9C109.453 155.34 109.313 155.893 109.313 156.56C109.313 157.2 109.48 157.76 109.813 158.24C110.16 158.707 110.633 159.073 111.233 159.34C111.847 159.593 112.56 159.72 113.373 159.72C114.067 159.72 114.653 159.633 115.133 159.46C115.627 159.273 116.08 159.033 116.493 158.74L117.793 160.64C117.38 160.96 116.907 161.24 116.373 161.48C115.853 161.72 115.307 161.9 114.733 162.02C114.16 162.14 113.58 162.2 112.993 162.2ZM119.906 162V151.42H122.626L122.726 155.02L122.086 154.6C122.273 153.973 122.573 153.4 122.986 152.88C123.413 152.36 123.906 151.953 124.466 151.66C125.026 151.353 125.613 151.2 126.226 151.2C126.573 151.2 126.899 151.233 127.206 151.3C127.526 151.367 127.786 151.453 127.986 151.56L127.226 154.64C127.026 154.507 126.759 154.4 126.426 154.32C126.106 154.24 125.786 154.2 125.466 154.2C125.066 154.2 124.693 154.273 124.346 154.42C124.013 154.553 123.726 154.74 123.486 154.98C123.246 155.22 123.059 155.493 122.926 155.8C122.806 156.107 122.746 156.427 122.746 156.76V162H119.906ZM132.896 162.2C131.856 162.2 130.929 161.967 130.116 161.5C129.316 161.02 128.689 160.373 128.236 159.56C127.796 158.733 127.576 157.78 127.576 156.7C127.576 155.647 127.802 154.707 128.256 153.88C128.722 153.053 129.362 152.4 130.176 151.92C130.989 151.44 131.922 151.2 132.976 151.2C133.576 151.2 134.136 151.28 134.656 151.44C135.189 151.6 135.662 151.813 136.076 152.08C136.489 152.347 136.816 152.647 137.056 152.98C137.309 153.3 137.449 153.633 137.476 153.98L136.756 154.1V147.2H139.596V162H136.916L136.796 159.4L137.356 159.52C137.329 159.853 137.189 160.18 136.936 160.5C136.696 160.807 136.369 161.093 135.956 161.36C135.542 161.613 135.076 161.82 134.556 161.98C134.036 162.127 133.482 162.2 132.896 162.2ZM133.616 159.8C134.256 159.8 134.816 159.667 135.296 159.4C135.789 159.133 136.169 158.773 136.436 158.32C136.716 157.853 136.856 157.313 136.856 156.7C136.856 156.1 136.716 155.567 136.436 155.1C136.169 154.633 135.789 154.273 135.296 154.02C134.816 153.767 134.256 153.64 133.616 153.64C132.976 153.64 132.416 153.767 131.936 154.02C131.456 154.273 131.082 154.633 130.816 155.1C130.549 155.567 130.416 156.1 130.416 156.7C130.416 157.313 130.549 157.853 130.816 158.32C131.082 158.773 131.456 159.133 131.936 159.4C132.416 159.667 132.976 159.8 133.616 159.8ZM146.061 162.2C145.021 162.2 144.101 161.967 143.301 161.5C142.514 161.02 141.894 160.367 141.441 159.54C141.001 158.713 140.781 157.76 140.781 156.68C140.781 155.613 141.008 154.673 141.461 153.86C141.928 153.033 142.561 152.387 143.361 151.92C144.174 151.44 145.108 151.2 146.161 151.2C146.774 151.2 147.341 151.28 147.861 151.44C148.381 151.6 148.834 151.82 149.221 152.1C149.608 152.367 149.921 152.667 150.161 153C150.414 153.32 150.574 153.66 150.641 154.02L150.001 154V151.42H152.801V162H149.961V159.3L150.561 159.36C150.481 159.707 150.314 160.047 150.061 160.38C149.808 160.713 149.474 161.02 149.061 161.3C148.661 161.567 148.201 161.787 147.681 161.96C147.174 162.12 146.634 162.2 146.061 162.2ZM146.821 159.74C147.461 159.74 148.021 159.613 148.501 159.36C148.994 159.107 149.374 158.753 149.641 158.3C149.908 157.833 150.041 157.293 150.041 156.68C150.041 156.093 149.908 155.573 149.641 155.12C149.374 154.667 148.994 154.307 148.501 154.04C148.021 153.773 147.461 153.64 146.821 153.64C146.181 153.64 145.621 153.773 145.141 154.04C144.661 154.307 144.281 154.667 144.001 155.12C143.734 155.573 143.601 156.093 143.601 156.68C143.601 157.293 143.734 157.833 144.001 158.3C144.281 158.753 144.661 159.107 145.141 159.36C145.621 159.613 146.181 159.74 146.821 159.74ZM156.607 166.6L159.247 161.16L159.227 162.78L153.507 151.42H156.787L159.567 157.38C159.767 157.78 159.947 158.18 160.107 158.58C160.28 158.98 160.414 159.367 160.507 159.74L159.967 159.88C160.087 159.56 160.234 159.193 160.407 158.78C160.58 158.353 160.76 157.92 160.947 157.48L163.487 151.42H166.747L161.627 162.04L159.507 166.6H156.607Z" fill="black"/>
<path d="M194.309 162V148.5H197.149V162H194.309ZM191.849 153.96V151.42H199.949V153.96H191.849ZM206.632 162.2C205.432 162.2 204.358 161.967 203.412 161.5C202.478 161.02 201.738 160.367 201.192 159.54C200.658 158.713 200.392 157.767 200.392 156.7C200.392 155.633 200.658 154.693 201.192 153.88C201.738 153.053 202.478 152.4 203.412 151.92C204.358 151.44 205.432 151.2 206.632 151.2C207.845 151.2 208.918 151.44 209.852 151.92C210.785 152.4 211.518 153.053 212.052 153.88C212.598 154.693 212.872 155.633 212.872 156.7C212.872 157.767 212.598 158.713 212.052 159.54C211.518 160.367 210.785 161.02 209.852 161.5C208.918 161.967 207.845 162.2 206.632 162.2ZM206.632 159.72C207.272 159.72 207.845 159.593 208.352 159.34C208.858 159.073 209.258 158.713 209.552 158.26C209.858 157.793 210.005 157.273 209.992 156.7C210.005 156.113 209.858 155.593 209.552 155.14C209.258 154.673 208.858 154.313 208.352 154.06C207.845 153.793 207.272 153.66 206.632 153.66C206.005 153.66 205.432 153.793 204.912 154.06C204.392 154.327 203.985 154.687 203.692 155.14C203.398 155.58 203.258 156.1 203.272 156.7C203.258 157.273 203.398 157.793 203.692 158.26C203.985 158.713 204.392 159.073 204.912 159.34C205.432 159.593 206.005 159.72 206.632 159.72ZM218.641 162.2C217.601 162.2 216.674 161.967 215.861 161.5C215.061 161.02 214.434 160.373 213.981 159.56C213.541 158.733 213.321 157.78 213.321 156.7C213.321 155.647 213.548 154.707 214.001 153.88C214.468 153.053 215.108 152.4 215.921 151.92C216.734 151.44 217.668 151.2 218.721 151.2C219.321 151.2 219.881 151.28 220.401 151.44C220.934 151.6 221.408 151.813 221.821 152.08C222.234 152.347 222.561 152.647 222.801 152.98C223.054 153.3 223.194 153.633 223.221 153.98L222.501 154.1V147.2H225.341V162H222.661L222.541 159.4L223.101 159.52C223.074 159.853 222.934 160.18 222.681 160.5C222.441 160.807 222.114 161.093 221.701 161.36C221.288 161.613 220.821 161.82 220.301 161.98C219.781 162.127 219.228 162.2 218.641 162.2ZM219.361 159.8C220.001 159.8 220.561 159.667 221.041 159.4C221.534 159.133 221.914 158.773 222.181 158.32C222.461 157.853 222.601 157.313 222.601 156.7C222.601 156.1 222.461 155.567 222.181 155.1C221.914 154.633 221.534 154.273 221.041 154.02C220.561 153.767 220.001 153.64 219.361 153.64C218.721 153.64 218.161 153.767 217.681 154.02C217.201 154.273 216.828 154.633 216.561 155.1C216.294 155.567 216.161 156.1 216.161 156.7C216.161 157.313 216.294 157.853 216.561 158.32C216.828 158.773 217.201 159.133 217.681 159.4C218.161 159.667 218.721 159.8 219.361 159.8ZM231.806 162.2C230.766 162.2 229.846 161.967 229.046 161.5C228.26 161.02 227.64 160.367 227.186 159.54C226.746 158.713 226.526 157.76 226.526 156.68C226.526 155.613 226.753 154.673 227.206 153.86C227.673 153.033 228.306 152.387 229.106 151.92C229.92 151.44 230.853 151.2 231.906 151.2C232.52 151.2 233.086 151.28 233.606 151.44C234.126 151.6 234.58 151.82 234.966 152.1C235.353 152.367 235.666 152.667 235.906 153C236.16 153.32 236.32 153.66 236.386 154.02L235.746 154V151.42H238.546V162H235.706V159.3L236.306 159.36C236.226 159.707 236.06 160.047 235.806 160.38C235.553 160.713 235.22 161.02 234.806 161.3C234.406 161.567 233.946 161.787 233.426 161.96C232.92 162.12 232.38 162.2 231.806 162.2ZM232.566 159.74C233.206 159.74 233.766 159.613 234.246 159.36C234.74 159.107 235.12 158.753 235.386 158.3C235.653 157.833 235.786 157.293 235.786 156.68C235.786 156.093 235.653 155.573 235.386 155.12C235.12 154.667 234.74 154.307 234.246 154.04C233.766 153.773 233.206 153.64 232.566 153.64C231.926 153.64 231.366 153.773 230.886 154.04C230.406 154.307 230.026 154.667 229.746 155.12C229.48 155.573 229.346 156.093 229.346 156.68C229.346 157.293 229.48 157.833 229.746 158.3C230.026 158.753 230.406 159.107 230.886 159.36C231.366 159.613 231.926 159.74 232.566 159.74ZM242.352 166.6L244.992 161.16L244.972 162.78L239.252 151.42H242.532L245.312 157.38C245.512 157.78 245.692 158.18 245.852 158.58C246.026 158.98 246.159 159.367 246.252 159.74L245.712 159.88C245.832 159.56 245.979 159.193 246.152 158.78C246.326 158.353 246.506 157.92 246.692 157.48L249.232 151.42H252.492L247.372 162.04L245.252 166.6H242.352Z" fill="black"/>
<path d="M281.024 162V148.5H283.864V162H281.024ZM278.564 153.96V151.42H286.664V153.96H278.564ZM293.347 162.2C292.147 162.2 291.074 161.967 290.127 161.5C289.194 161.02 288.454 160.367 287.907 159.54C287.374 158.713 287.107 157.767 287.107 156.7C287.107 155.633 287.374 154.693 287.907 153.88C288.454 153.053 289.194 152.4 290.127 151.92C291.074 151.44 292.147 151.2 293.347 151.2C294.56 151.2 295.634 151.44 296.567 151.92C297.5 152.4 298.234 153.053 298.767 153.88C299.314 154.693 299.587 155.633 299.587 156.7C299.587 157.767 299.314 158.713 298.767 159.54C298.234 160.367 297.5 161.02 296.567 161.5C295.634 161.967 294.56 162.2 293.347 162.2ZM293.347 159.72C293.987 159.72 294.56 159.593 295.067 159.34C295.574 159.073 295.974 158.713 296.267 158.26C296.574 157.793 296.72 157.273 296.707 156.7C296.72 156.113 296.574 155.593 296.267 155.14C295.974 154.673 295.574 154.313 295.067 154.06C294.56 153.793 293.987 153.66 293.347 153.66C292.72 153.66 292.147 153.793 291.627 154.06C291.107 154.327 290.7 154.687 290.407 155.14C290.114 155.58 289.974 156.1 289.987 156.7C289.974 157.273 290.114 157.793 290.407 158.26C290.7 158.713 291.107 159.073 291.627 159.34C292.147 159.593 292.72 159.72 293.347 159.72ZM301.116 162V151.42H303.856L303.916 153.76L303.336 153.68C303.496 153.36 303.716 153.053 303.996 152.76C304.276 152.467 304.603 152.207 304.976 151.98C305.363 151.753 305.776 151.573 306.216 151.44C306.67 151.293 307.15 151.22 307.656 151.22C308.256 151.22 308.803 151.313 309.296 151.5C309.803 151.687 310.223 151.987 310.556 152.4C310.903 152.8 311.156 153.327 311.316 153.98L310.716 153.9L310.876 153.58C311.063 153.273 311.303 152.987 311.596 152.72C311.89 152.44 312.23 152.187 312.616 151.96C313.016 151.733 313.436 151.553 313.876 151.42C314.316 151.287 314.77 151.22 315.236 151.22C316.21 151.22 316.996 151.407 317.596 151.78C318.196 152.14 318.636 152.653 318.916 153.32C319.196 153.987 319.336 154.767 319.336 155.66V162H316.496V155.94C316.496 155.46 316.423 155.053 316.276 154.72C316.13 154.387 315.91 154.133 315.616 153.96C315.323 153.773 314.936 153.68 314.456 153.68C314.056 153.68 313.683 153.747 313.336 153.88C313.003 154 312.703 154.173 312.436 154.4C312.183 154.627 311.983 154.893 311.836 155.2C311.703 155.493 311.636 155.813 311.636 156.16V162H308.796V155.92C308.796 155.467 308.71 155.073 308.536 154.74C308.376 154.393 308.136 154.133 307.816 153.96C307.496 153.773 307.083 153.68 306.576 153.68C306.19 153.68 305.836 153.747 305.516 153.88C305.21 154.013 304.936 154.193 304.696 154.42C304.47 154.647 304.29 154.893 304.156 155.16C304.023 155.427 303.956 155.7 303.956 155.98V162H301.116ZM327.024 162.2C325.824 162.2 324.75 161.967 323.804 161.5C322.87 161.02 322.13 160.367 321.584 159.54C321.05 158.713 320.784 157.767 320.784 156.7C320.784 155.633 321.05 154.693 321.584 153.88C322.13 153.053 322.87 152.4 323.804 151.92C324.75 151.44 325.824 151.2 327.024 151.2C328.237 151.2 329.31 151.44 330.244 151.92C331.177 152.4 331.91 153.053 332.444 153.88C332.99 154.693 333.264 155.633 333.264 156.7C333.264 157.767 332.99 158.713 332.444 159.54C331.91 160.367 331.177 161.02 330.244 161.5C329.31 161.967 328.237 162.2 327.024 162.2ZM327.024 159.72C327.664 159.72 328.237 159.593 328.744 159.34C329.25 159.073 329.65 158.713 329.944 158.26C330.25 157.793 330.397 157.273 330.384 156.7C330.397 156.113 330.25 155.593 329.944 155.14C329.65 154.673 329.25 154.313 328.744 154.06C328.237 153.793 327.664 153.66 327.024 153.66C326.397 153.66 325.824 153.793 325.304 154.06C324.784 154.327 324.377 154.687 324.084 155.14C323.79 155.58 323.65 156.1 323.664 156.7C323.65 157.273 323.79 157.793 324.084 158.26C324.377 158.713 324.784 159.073 325.304 159.34C325.824 159.593 326.397 159.72 327.024 159.72ZM334.913 162V151.42H337.633L337.733 155.02L337.093 154.6C337.279 153.973 337.579 153.4 337.993 152.88C338.419 152.36 338.913 151.953 339.473 151.66C340.033 151.353 340.619 151.2 341.233 151.2C341.579 151.2 341.906 151.233 342.213 151.3C342.533 151.367 342.793 151.453 342.993 151.56L342.233 154.64C342.033 154.507 341.766 154.4 341.433 154.32C341.113 154.24 340.793 154.2 340.473 154.2C340.073 154.2 339.699 154.273 339.353 154.42C339.019 154.553 338.733 154.74 338.493 154.98C338.253 155.22 338.066 155.493 337.933 155.8C337.813 156.107 337.753 156.427 337.753 156.76V162H334.913ZM344.231 162V151.42H346.951L347.051 155.02L346.411 154.6C346.598 153.973 346.898 153.4 347.311 152.88C347.738 152.36 348.231 151.953 348.791 151.66C349.351 151.353 349.938 151.2 350.551 151.2C350.898 151.2 351.225 151.233 351.531 151.3C351.851 151.367 352.111 151.453 352.311 151.56L351.551 154.64C351.351 154.507 351.085 154.4 350.751 154.32C350.431 154.24 350.111 154.2 349.791 154.2C349.391 154.2 349.018 154.273 348.671 154.42C348.338 154.553 348.051 154.74 347.811 154.98C347.571 155.22 347.385 155.493 347.251 155.8C347.131 156.107 347.071 156.427 347.071 156.76V162H344.231ZM358.261 162.2C357.061 162.2 355.988 161.967 355.041 161.5C354.108 161.02 353.368 160.367 352.821 159.54C352.288 158.713 352.021 157.767 352.021 156.7C352.021 155.633 352.288 154.693 352.821 153.88C353.368 153.053 354.108 152.4 355.041 151.92C355.988 151.44 357.061 151.2 358.261 151.2C359.474 151.2 360.548 151.44 361.481 151.92C362.414 152.4 363.148 153.053 363.681 153.88C364.228 154.693 364.501 155.633 364.501 156.7C364.501 157.767 364.228 158.713 363.681 159.54C363.148 160.367 362.414 161.02 361.481 161.5C360.548 161.967 359.474 162.2 358.261 162.2ZM358.261 159.72C358.901 159.72 359.474 159.593 359.981 159.34C360.488 159.073 360.888 158.713 361.181 158.26C361.488 157.793 361.634 157.273 361.621 156.7C361.634 156.113 361.488 155.593 361.181 155.14C360.888 154.673 360.488 154.313 359.981 154.06C359.474 153.793 358.901 153.66 358.261 153.66C357.634 153.66 357.061 153.793 356.541 154.06C356.021 154.327 355.614 154.687 355.321 155.14C355.028 155.58 354.888 156.1 354.901 156.7C354.888 157.273 355.028 157.793 355.321 158.26C355.614 158.713 356.021 159.073 356.541 159.34C357.061 159.593 357.634 159.72 358.261 159.72ZM367.8 162L364.1 151.42H367.08L369.34 158.74L368.9 158.7L371.48 152.92H373.34L376.04 158.72L375.6 158.76L377.94 151.42H380.9L377.08 162H374.98L372.06 155.34L372.82 155.3L369.88 162H367.8Z" fill="black"/>
<line x1="179.5" y1="147" x2="179.5" y2="281" stroke="black" stroke-width="3"/>
<line x1="264.5" y1="147" x2="264.5" y2="281" stroke="black" stroke-width="3"/>
<path d="M249.281 223.438L253.75 218.969L249.281 214.5L238.125 225.656L211.344 198.875L222.5 187.719L218.031 183.25L213.563 187.719L209.094 183.25L202.406 189.937L197.937 185.469L193.469 189.937L197.937 194.406L191.25 201.094L195.719 205.563L191.25 210.031L195.719 214.5L206.875 203.344L233.656 230.125L222.5 241.281L226.969 245.75L231.438 241.281L235.906 245.75L242.594 239.062L247.062 243.531L251.531 239.062L247.062 234.594L253.75 227.906L249.281 223.438Z" fill="#FF523A"/>
<path d="M329.5 183.25C312.25 183.25 298.25 197.25 298.25 214.5C298.25 231.75 312.25 245.75 329.5 245.75C346.75 245.75 360.75 231.75 360.75 214.5C360.75 197.25 346.75 183.25 329.5 183.25ZM308.344 201.219C311.062 203.938 312.938 207.438 313.594 211.375H304.719C305.188 207.688 306.469 204.25 308.344 201.219ZM304.719 217.625H313.594C312.938 221.562 311.062 225.062 308.344 227.781C306.469 224.75 305.188 221.312 304.719 217.625ZM326.375 239.281C320.969 238.594 316.094 236.156 312.344 232.594C316.406 228.719 319.188 223.5 319.906 217.625H326.375V239.281ZM326.375 211.375H319.906C319.156 205.5 316.406 200.25 312.312 196.375C316.094 192.812 320.969 190.406 326.375 189.719V211.375ZM354.281 211.375H345.406C346.062 207.438 347.938 203.938 350.656 201.219C352.531 204.25 353.812 207.688 354.281 211.375ZM332.625 189.719C338.031 190.406 342.906 192.812 346.688 196.375C342.594 200.25 339.844 205.5 339.094 211.375H332.625V189.719ZM332.625 239.281V217.625H339.094C339.844 223.5 342.594 228.719 346.656 232.594C342.906 236.156 338.031 238.594 332.625 239.281ZM350.656 227.781C347.938 225.094 346.094 221.562 345.406 217.625H354.281C353.812 221.312 352.531 224.75 350.656 227.781Z" fill="#FF523A"/>
<path d="M128 199.125C128 204.656 125.375 209.281 121.75 211.062V242.625H115.5V211.062C111.875 209.281 109.25 204.656 109.25 199.125C109.281 192.094 113.469 186.375 118.625 186.375C123.812 186.375 128 192.094 128 199.125ZM131.125 186.375V242.625H137.375V217.625H143.625V198.875C143.625 193.375 139.75 186.375 131.125 186.375ZM103.875 186.375C102.625 186.375 101.625 187.375 101.625 188.625V198.875H99V188.625C99 187.375 98 186.375 96.75 186.375C95.5 186.375 94.5 187.375 94.5 188.625V198.875H91.875V188.625C91.875 187.375 90.875 186.375 89.625 186.375C88.375 186.375 87.375 187.375 87.375 188.625V205.125C87.375 208.562 90.1875 211.375 93.625 211.375V242.625H99.875V211.375C103.312 211.375 106.125 208.562 106.125 205.125V188.625C106.125 187.375 105.125 186.375 103.875 186.375Z" fill="#FF523A"/>
<path d="M197.867 124V75H223.347C226.8 75 229.88 75.7233 232.587 77.17C235.294 78.6167 237.417 80.6 238.957 83.12C240.544 85.64 241.337 88.5333 241.337 91.8C241.337 95.2533 240.52 98.3333 238.887 101.04C237.3 103.747 235.107 105.87 232.307 107.41C229.507 108.95 226.334 109.72 222.787 109.72H212.987V124H197.867ZM212.707 96.84H219.777C220.85 96.84 221.83 96.6533 222.717 96.28C223.65 95.9067 224.374 95.37 224.887 94.67C225.4 93.97 225.657 93.1067 225.657 92.08C225.657 91.1 225.4 90.3067 224.887 89.7C224.374 89.0933 223.65 88.65 222.717 88.37C221.83 88.0433 220.85 87.88 219.777 87.88H212.707V96.84ZM246.905 124V72.2H261.115V124H246.905ZM283.472 124.63C279.786 124.63 276.566 123.813 273.812 122.18C271.106 120.547 268.982 118.283 267.442 115.39C265.949 112.45 265.202 109.067 265.202 105.24C265.202 101.413 265.949 98.0533 267.442 95.16C268.982 92.22 271.129 89.9333 273.882 88.3C276.636 86.62 279.856 85.78 283.542 85.78C285.549 85.78 287.392 86.0367 289.072 86.55C290.799 87.0167 292.292 87.6933 293.552 88.58C294.859 89.42 295.932 90.3533 296.772 91.38C297.659 92.4067 298.336 93.48 298.802 94.6L295.792 94.81V86.55H309.652V124H295.442V114.27L298.452 114.97C298.079 116.23 297.449 117.443 296.562 118.61C295.722 119.777 294.649 120.803 293.342 121.69C292.036 122.577 290.542 123.3 288.862 123.86C287.229 124.373 285.432 124.63 283.472 124.63ZM287.462 113.08C289.189 113.08 290.682 112.777 291.942 112.17C293.202 111.563 294.159 110.677 294.812 109.51C295.466 108.343 295.792 106.92 295.792 105.24C295.792 103.607 295.466 102.207 294.812 101.04C294.159 99.8267 293.202 98.9167 291.942 98.31C290.682 97.6567 289.189 97.33 287.462 97.33C285.689 97.33 284.172 97.6567 282.912 98.31C281.699 98.9167 280.766 99.8267 280.112 101.04C279.459 102.207 279.132 103.607 279.132 105.24C279.132 106.92 279.459 108.343 280.112 109.51C280.766 110.677 281.699 111.563 282.912 112.17C284.172 112.777 285.689 113.08 287.462 113.08ZM318.286 124V86.55H331.446L332.146 95.23L328.856 96.14C329.369 94.2267 330.349 92.5 331.796 90.96C333.242 89.3733 335.039 88.1133 337.186 87.18C339.379 86.2467 341.759 85.78 344.326 85.78C347.452 85.78 350.112 86.4333 352.306 87.74C354.546 89 356.226 90.7967 357.346 93.13C358.512 95.4167 359.096 98.1467 359.096 101.32V124H344.886V103.49C344.886 102.183 344.652 101.087 344.186 100.2C343.719 99.3133 343.019 98.6133 342.086 98.1C341.199 97.5867 340.149 97.33 338.936 97.33C337.862 97.33 336.929 97.5167 336.136 97.89C335.342 98.2167 334.666 98.66 334.106 99.22C333.592 99.78 333.196 100.41 332.916 101.11C332.636 101.81 332.496 102.51 332.496 103.21V124H325.426C323.419 124 321.809 124 320.596 124C319.429 124 318.659 124 318.286 124ZM372.773 124.77C370.206 124.77 368.246 124.163 366.893 122.95C365.539 121.69 364.863 119.963 364.863 117.77C364.863 115.81 365.563 114.153 366.963 112.8C368.363 111.447 370.299 110.77 372.773 110.77C375.339 110.77 377.299 111.4 378.653 112.66C380.006 113.873 380.683 115.577 380.683 117.77C380.683 119.73 379.983 121.387 378.583 122.74C377.183 124.093 375.246 124.77 372.773 124.77Z" fill="#0F0F0F"/>
<defs>
<filter id="filter0_d_369_336" x="0" y="0" width="444" height="350" filterUnits="userSpaceOnUse" color-interpolation-filters="sRGB">
<feFlood flood-opacity="0" result="BackgroundImageFix"/>
<feColorMatrix in="SourceAlpha" type="matrix" values="0 0 0 0 0 0 0 0 0 0 0 0 0 0 0 0 0 0 127 0" result="hardAlpha"/>
<feMorphology radius="10" operator="dilate" in="SourceAlpha" result="effect1_dropShadow_369_336"/>
<feOffset dy="4"/>
<feGaussianBlur stdDeviation="15"/>
<feComposite in2="hardAlpha" operator="out"/>
<feColorMatrix type="matrix" values="0 0 0 0 0 0 0 0 0 0 0 0 0 0 0 0 0 0 0.25 0"/>
<feBlend mode="normal" in2="BackgroundImageFix" result="effect1_dropShadow_369_336"/>
<feBlend mode="normal" in="SourceGraphic" in2="effect1_dropShadow_369_336" result="shape"/>
</filter>
</defs>
</svg>
