<svg width="465" height="247" viewBox="0 0 465 247" fill="none" xmlns="http://www.w3.org/2000/svg">
<g filter="url(#filter0_d_369_354)">
<rect x="40" y="36" width="385" height="167" rx="50" fill="white"/>
</g>
<path d="M384.084 91.5834V100.166H392.251C394.831 100.167 396.959 102.294 396.959 104.874V170.708C396.959 173.284 394.836 175.416 392.208 175.416H360.75C358.174 175.416 356.042 173.294 356.042 170.665V104.874C356.042 102.294 358.169 100.166 360.75 100.166H368.917V91.5834H384.084ZM379.909 111.571L362.743 143.758L361.959 145.229H371.209V167.833L373.09 168.304L390.257 136.117L391.042 134.646H381.792V112.041L379.909 111.571Z" fill="#FFFB00" stroke="black" stroke-width="2"/>
<path d="M305.084 92.5834V101.166H313.251C315.831 101.167 317.959 103.294 317.959 105.874V171.708C317.959 174.284 315.836 176.416 313.208 176.416H281.75C279.174 176.416 277.042 174.294 277.042 171.665V105.874C277.042 103.294 279.169 101.166 281.75 101.166H289.917V92.5834H305.084ZM300.909 112.571L283.743 144.758L282.959 146.229H292.209V168.833L294.09 169.304L311.257 137.117L312.042 135.646H302.792V113.041L300.909 112.571Z" fill="#FFFB00" stroke="black" stroke-width="2"/>
<path d="M348.166 59.1666V71.3336H359.326C363.214 71.3336 366.416 74.5359 366.416 78.4244V171.743C366.416 175.626 363.219 178.834 359.265 178.834H314.674C310.79 178.834 307.583 175.636 307.583 171.681V78.4244C307.583 74.5359 310.786 71.3336 314.674 71.3336H325.833V59.1666H348.166ZM342.201 88.1129L317.868 133.738L317.083 135.209H329.916V167.667L331.799 168.137L356.132 122.512L356.916 121.042H344.083V88.5836L342.201 88.1129Z" fill="#FFFB00" stroke="black" stroke-width="2"/>
<path d="M79.98 114V65H105.04C108.96 65 112.32 65.6533 115.12 66.96C117.92 68.2667 120.043 70.11 121.49 72.49C122.983 74.8233 123.73 77.6 123.73 80.82C123.73 84.18 122.937 87.1433 121.35 89.71C119.81 92.23 117.64 94.2133 114.84 95.66C112.087 97.1067 108.96 97.83 105.46 97.83H94.12V114H79.98ZM109.17 114L95.03 91.88L110.64 90.13L126.18 114H109.17ZM94.12 87.33H103.29C104.457 87.33 105.437 87.12 106.23 86.7C107.07 86.28 107.723 85.6733 108.19 84.88C108.657 84.0867 108.89 83.1067 108.89 81.94C108.89 80.8667 108.657 79.9567 108.19 79.21C107.723 78.4633 107.047 77.9033 106.16 77.53C105.32 77.11 104.27 76.9 103.01 76.9H94.12V87.33ZM148.053 114.7C143.293 114.7 139.163 113.86 135.663 112.18C132.21 110.5 129.55 108.213 127.683 105.32C125.817 102.38 124.883 99.02 124.883 95.24C124.883 92.3467 125.42 89.71 126.493 87.33C127.567 84.95 129.06 82.8967 130.973 81.17C132.933 79.4433 135.197 78.1133 137.763 77.18C140.33 76.2467 143.107 75.78 146.093 75.78C149.127 75.78 151.903 76.2467 154.423 77.18C156.943 78.1133 159.113 79.4667 160.933 81.24C162.8 82.9667 164.223 85.02 165.203 87.4C166.23 89.78 166.697 92.3933 166.603 95.24L166.533 98.25H133.283L131.673 91.11H155.263L153.933 92.93V91.67C153.887 90.7833 153.513 89.99 152.813 89.29C152.16 88.5433 151.273 87.96 150.153 87.54C149.033 87.12 147.773 86.91 146.373 86.91C144.74 86.91 143.27 87.19 141.963 87.75C140.703 88.2633 139.7 89.0567 138.953 90.13C138.207 91.2033 137.833 92.5333 137.833 94.12C137.833 95.8 138.3 97.2933 139.233 98.6C140.213 99.9067 141.59 100.957 143.363 101.75C145.183 102.497 147.377 102.87 149.943 102.87C152.137 102.87 153.91 102.66 155.263 102.24C156.663 101.773 157.853 101.237 158.833 100.63L165.133 109.52C163.313 110.78 161.47 111.807 159.603 112.6C157.737 113.347 155.847 113.883 153.933 114.21C152.067 114.537 150.107 114.7 148.053 114.7ZM186.388 114.7C181.861 114.7 177.871 114.093 174.418 112.88C170.964 111.62 168.234 109.963 166.228 107.91L174.488 100.7C176.028 102.053 177.964 103.103 180.298 103.85C182.631 104.597 184.964 104.97 187.298 104.97C187.904 104.97 188.464 104.923 188.978 104.83C189.538 104.737 189.981 104.62 190.308 104.48C190.681 104.293 190.961 104.083 191.148 103.85C191.381 103.617 191.498 103.337 191.498 103.01C191.498 102.45 191.101 102.007 190.308 101.68C189.608 101.447 188.628 101.213 187.368 100.98C186.154 100.747 184.824 100.49 183.378 100.21C180.951 99.79 178.781 99.2767 176.868 98.67C175.001 98.0633 173.391 97.2933 172.038 96.36C170.731 95.3333 169.704 94.1433 168.958 92.79C168.211 91.39 167.838 89.78 167.838 87.96C167.838 86.0467 168.328 84.3433 169.308 82.85C170.288 81.31 171.641 80.0267 173.368 79C175.094 77.9733 177.054 77.18 179.248 76.62C181.441 76.06 183.704 75.78 186.038 75.78C188.511 75.78 190.868 75.99 193.108 76.41C195.394 76.83 197.564 77.4367 199.618 78.23C201.671 79.0233 203.514 80.0267 205.148 81.24L198.078 89.43C197.098 88.7767 195.908 88.1467 194.508 87.54C193.154 86.8867 191.661 86.35 190.028 85.93C188.441 85.51 186.854 85.3 185.268 85.3C184.661 85.3 184.101 85.3467 183.588 85.44C183.121 85.4867 182.724 85.6033 182.398 85.79C182.071 85.93 181.814 86.1167 181.628 86.35C181.441 86.5367 181.348 86.77 181.348 87.05C181.301 87.3767 181.371 87.68 181.558 87.96C181.791 88.1933 182.094 88.4033 182.468 88.59C183.074 88.9167 183.984 89.22 185.198 89.5C186.458 89.7333 188.068 90.06 190.028 90.48C193.201 91.1333 195.838 91.88 197.938 92.72C200.038 93.56 201.694 94.54 202.908 95.66C203.748 96.4067 204.378 97.3167 204.798 98.39C205.218 99.4167 205.428 100.537 205.428 101.75C205.428 104.223 204.611 106.44 202.978 108.4C201.391 110.313 199.174 111.853 196.328 113.02C193.528 114.14 190.214 114.7 186.388 114.7ZM211.468 114V66.26H225.678V114H211.468ZM203.978 88.45V76.55H234.078V88.45H203.978ZM244.837 114.77C242.27 114.77 240.31 114.163 238.957 112.95C237.603 111.69 236.927 109.963 236.927 107.77C236.927 105.81 237.627 104.153 239.027 102.8C240.427 101.447 242.363 100.77 244.837 100.77C247.403 100.77 249.363 101.4 250.717 102.66C252.07 103.873 252.747 105.577 252.747 107.77C252.747 109.73 252.047 111.387 250.647 112.74C249.247 114.093 247.31 114.77 244.837 114.77Z" fill="#0F0F0F"/>
<defs>
<filter id="filter0_d_369_354" x="0" y="0" width="465" height="247" filterUnits="userSpaceOnUse" color-interpolation-filters="sRGB">
<feFlood flood-opacity="0" result="BackgroundImageFix"/>
<feColorMatrix in="SourceAlpha" type="matrix" values="0 0 0 0 0 0 0 0 0 0 0 0 0 0 0 0 0 0 127 0" result="hardAlpha"/>
<feMorphology radius="10" operator="dilate" in="SourceAlpha" result="effect1_dropShadow_369_354"/>
<feOffset dy="4"/>
<feGaussianBlur stdDeviation="15"/>
<feComposite in2="hardAlpha" operator="out"/>
<feColorMatrix type="matrix" values="0 0 0 0 0 0 0 0 0 0 0 0 0 0 0 0 0 0 0.25 0"/>
<feBlend mode="normal" in2="BackgroundImageFix" result="effect1_dropShadow_369_354"/>
<feBlend mode="normal" in="SourceGraphic" in2="effect1_dropShadow_369_354" result="shape"/>
</filter>
</defs>
</svg>
