<svg width="541" height="371" viewBox="0 0 541 371" fill="none" xmlns="http://www.w3.org/2000/svg">
<g filter="url(#filter0_d_369_360)">
<path d="M55 101C55 73.3858 77.3858 51 105 51H486V312H105C77.3858 312 55 289.614 55 262V101Z" fill="white"/>
</g>
<path d="M69 194C69 192.343 70.3431 191 72 191H111V297H107C86.0132 297 69 279.987 69 259V194Z" fill="#BB9C37"/>
<path d="M121 234C121 232.343 122.343 231 124 231H167V297H121V234Z" fill="#BB9C37"/>
<path d="M177 259.537C177 257.88 178.343 256.537 180 256.537H223.406V297H177V259.537Z" fill="#BB9C37"/>
<path d="M290.438 259.537C290.438 257.88 291.781 256.537 293.438 256.537H336.844V297H290.438V259.537Z" fill="#BB9C37"/>
<path d="M233.719 211.366C233.719 209.709 235.062 208.366 236.719 208.366H280.125V297H233.719V211.366Z" fill="#BB9C37"/>
<path d="M403.875 211.366C403.875 209.709 405.218 208.366 406.875 208.366H450.281V297H403.875V211.366Z" fill="#BB9C37"/>
<path d="M347.156 170.902C347.156 169.246 348.499 167.902 350.156 167.902H393.562V297H347.156V170.902Z" fill="#BB9C37"/>
<path d="M461 142C461 140.343 462.343 139 464 139H486V297H461V142Z" fill="#BB9C37"/>
<path d="M112.035 136V99.88H94.9552V87H144.655V99.88H127.155V136H112.035ZM144.564 136V98.55H157.724L158.564 111.71L154.854 110.73C155.507 108.303 156.604 106.11 158.144 104.15C159.684 102.19 161.504 100.65 163.604 99.53C165.704 98.3633 167.944 97.78 170.324 97.78C171.537 97.78 172.704 97.8967 173.824 98.13C174.944 98.3167 175.947 98.5967 176.834 98.97L172.914 114.58C172.26 114.067 171.257 113.647 169.904 113.32C168.597 112.947 167.22 112.76 165.774 112.76C164.607 112.76 163.58 112.947 162.694 113.32C161.807 113.647 161.06 114.137 160.454 114.79C159.894 115.397 159.474 116.097 159.194 116.89C158.914 117.683 158.774 118.547 158.774 119.48V136H144.564ZM193.302 136.63C189.615 136.63 186.395 135.813 183.642 134.18C180.935 132.547 178.812 130.283 177.272 127.39C175.779 124.45 175.032 121.067 175.032 117.24C175.032 113.413 175.779 110.053 177.272 107.16C178.812 104.22 180.959 101.933 183.712 100.3C186.465 98.62 189.685 97.78 193.372 97.78C195.379 97.78 197.222 98.0367 198.902 98.55C200.629 99.0167 202.122 99.6933 203.382 100.58C204.689 101.42 205.762 102.353 206.602 103.38C207.489 104.407 208.165 105.48 208.632 106.6L205.622 106.81V98.55H219.482V136H205.272V126.27L208.282 126.97C207.909 128.23 207.279 129.443 206.392 130.61C205.552 131.777 204.479 132.803 203.172 133.69C201.865 134.577 200.372 135.3 198.692 135.86C197.059 136.373 195.262 136.63 193.302 136.63ZM197.292 125.08C199.019 125.08 200.512 124.777 201.772 124.17C203.032 123.563 203.989 122.677 204.642 121.51C205.295 120.343 205.622 118.92 205.622 117.24C205.622 115.607 205.295 114.207 204.642 113.04C203.989 111.827 203.032 110.917 201.772 110.31C200.512 109.657 199.019 109.33 197.292 109.33C195.519 109.33 194.002 109.657 192.742 110.31C191.529 110.917 190.595 111.827 189.942 113.04C189.289 114.207 188.962 115.607 188.962 117.24C188.962 118.92 189.289 120.343 189.942 121.51C190.595 122.677 191.529 123.563 192.742 124.17C194.002 124.777 195.519 125.08 197.292 125.08ZM246.665 136.7C242.325 136.7 238.475 135.86 235.115 134.18C231.802 132.5 229.189 130.213 227.275 127.32C225.409 124.38 224.475 121.02 224.475 117.24C224.475 113.46 225.409 110.123 227.275 107.23C229.189 104.29 231.755 101.98 234.975 100.3C238.242 98.62 241.952 97.78 246.105 97.78C249.885 97.78 253.362 98.2933 256.535 99.32C259.709 100.3 262.392 101.747 264.585 103.66L256.885 113.18C256.139 112.573 255.275 112.013 254.295 111.5C253.362 110.987 252.335 110.59 251.215 110.31C250.095 110.03 248.859 109.89 247.505 109.89C245.685 109.89 244.099 110.193 242.745 110.8C241.439 111.407 240.435 112.27 239.735 113.39C239.082 114.463 238.755 115.723 238.755 117.17C238.755 118.57 239.082 119.83 239.735 120.95C240.389 122.023 241.369 122.887 242.675 123.54C243.982 124.193 245.545 124.52 247.365 124.52C248.952 124.52 250.329 124.403 251.495 124.17C252.662 123.89 253.689 123.563 254.575 123.19C255.509 122.77 256.279 122.303 256.885 121.79L264.515 131.24C262.322 132.92 259.709 134.25 256.675 135.23C253.642 136.21 250.305 136.7 246.665 136.7ZM281.827 126.34L275.317 117.52L295.897 98.55H314.517L281.827 126.34ZM268.387 136V84.2H282.317V136H268.387ZM297.227 136L282.667 116.75L292.467 109.61L313.467 136H297.227ZM322.737 136.77C320.171 136.77 318.211 136.163 316.857 134.95C315.504 133.69 314.827 131.963 314.827 129.77C314.827 127.81 315.527 126.153 316.927 124.8C318.327 123.447 320.264 122.77 322.737 122.77C325.304 122.77 327.264 123.4 328.617 124.66C329.971 125.873 330.647 127.577 330.647 129.77C330.647 131.73 329.947 133.387 328.547 134.74C327.147 136.093 325.211 136.77 322.737 136.77Z" fill="#0F0F0F"/>
<defs>
<filter id="filter0_d_369_360" x="0" y="0" width="541" height="371" filterUnits="userSpaceOnUse" color-interpolation-filters="sRGB">
<feFlood flood-opacity="0" result="BackgroundImageFix"/>
<feColorMatrix in="SourceAlpha" type="matrix" values="0 0 0 0 0 0 0 0 0 0 0 0 0 0 0 0 0 0 127 0" result="hardAlpha"/>
<feMorphology radius="10" operator="dilate" in="SourceAlpha" result="effect1_dropShadow_369_360"/>
<feOffset dy="4"/>
<feGaussianBlur stdDeviation="22.5"/>
<feComposite in2="hardAlpha" operator="out"/>
<feColorMatrix type="matrix" values="0 0 0 0 0 0 0 0 0 0 0 0 0 0 0 0 0 0 0.25 0"/>
<feBlend mode="normal" in2="BackgroundImageFix" result="effect1_dropShadow_369_360"/>
<feBlend mode="normal" in="SourceGraphic" in2="effect1_dropShadow_369_360" result="shape"/>
</filter>
</defs>
</svg>
